# xmcd
#
# Track frame offsets:
#	150
#	15838
#	32835
#	40135
#	51885
#	66090
#	78660
#	89835
#	100432
#	113055
#
# Disc length: 1740 seconds
#
# Revision: 0
# Processed by: cddbd v1.4PL0 Copyright (c) Steve Scherf et al.
# Submitted via: EasyCDDAExtractor 5.0.5.1
#
DISCID=7e06ca0a
DTITLE=Shawnee Singers - We Will Serve Him
DYEAR=2001
DGENRE=Gospel
TTITLE0=Worthy Of Worship
TTITLE1=We Cherish The Cross
TTITLE2=With A Song Of Praise
TTITLE3=At Calvary
TTITLE4=We Will Serve Him
TTITLE5=Emmanuel
TTITLE6=I Shall Know Him
TTITLE7=He Won The Fight
TTITLE8=Come, Praise The Lord With Me
TTITLE9=Almighty Unchangeable God
EXTD=
EXTT0=
EXTT1=
EXTT2=
EXTT3=
EXTT4=
EXTT5=
EXTT6=
EXTT7=
EXTT8=
EXTT9=
PLAYORDER=
